<svg version="1.2" xmlns="http://www.w3.org/2000/svg" viewBox="0 0 368 242" width="368" height="242">
	<style>
		.s0 { fill: none;stroke: #a78bfa;stroke-linecap: round;stroke-width: 14 } 
		.s1 { fill: #a78bfa } 
		.s2 { fill: #ffffff } 
		.s3 { fill: #1e1b3a } 
	</style>
	<path fill-rule="evenodd" class="s0" d="m34 48h300"/>
	<path fill-rule="evenodd" class="s0" d="m184 48v160"/>
	<path fill-rule="evenodd" class="s1" d="m34 82c-18.8 0-34-15.2-34-34 0-18.8 15.2-34 34-34 18.8 0 34 15.2 34 34 0 18.8-15.2 34-34 34z"/>
	<path fill-rule="evenodd" class="s1" d="m334 82c-18.8 0-34-15.2-34-34 0-18.8 15.2-34 34-34 18.8 0 34 15.2 34 34 0 18.8-15.2 34-34 34z"/>
	<path fill-rule="evenodd" class="s1" d="m184 242c-18.8 0-34-15.2-34-34 0-18.8 15.2-34 34-34 18.8 0 34 15.2 34 34 0 18.8-15.2 34-34 34z"/>
	<path fill-rule="evenodd" class="s2" d="m184 96c-26.54 0-48-21.46-48-48 0-26.54 21.46-48 48-48 26.54 0 48 21.46 48 48 0 26.54-21.46 48-48 48z"/>
	<path fill-rule="evenodd" class="s3" d="m184 74c-14.38 0-26-11.62-26-26 0-14.38 11.62-26 26-26 14.38 0 26 11.62 26 26 0 14.38-11.62 26-26 26z"/>
</svg>